<svg xmlns="http://www.w3.org/2000/svg" width="48.3" height="63.2"><path d="M24.1 59.1l-1.6-1.4C21.7 57 3.1 40.8 3.1 24.8c0-11.4 9.4-20.7 21-20.7s21 9.3 21 20.7c0 15.9-18.6 32.2-19.4 32.9l-1.6 1.4zm0-50.1c-8.8 0-16 7.1-16 15.8 0 11.2 11.6 23.4 16 27.6 4.4-4.2 16-16.5 16-27.6C40.1 16.1 33 9 24.1 9zm.5 25.8c-.1 1.1-.3 2.3-.5 3.5-5.9 0-10.7-5.8-10.7-13s4.8-13 10.7-13c-1 .8-1.8 1.8-2.4 2.9-.6 1.1-1.1 2.3-1.4 3.6-.3 1.3-.3 2.7.1 4.2.2.7.5 1.4.9 2 .4.7.9 1.2 1.4 1.8.6.6 1.1 1.3 1.4 2.1.2.4.3.8.4 1.3.1.5.2.9.2 1.4.1 1 0 2.1-.1 3.2zm10.3-9.4c0 7.2-4.8 13-10.7 13 .5-.4.9-.8 1.3-1.3s.8-1 1.1-1.5c.6-1.1 1.1-2.3 1.4-3.6.3-1.3.3-2.7-.1-4.2-.2-.7-.5-1.4-.9-2-.4-.7-.9-1.2-1.4-1.8-.6-.6-1.1-1.3-1.4-2.1-.2-.4-.3-.8-.4-1.3-.1-.5-.2-.9-.2-1.4-.1-1 0-2.1.1-3.2s.3-2.3.5-3.5c5.9-.1 10.7 5.7 10.7 12.9z" fill="#d6af7b"/></svg>